:SAMPLES-PER-SECOND 30
:FULLY-SPECIFIED
:DEGREES
186
root  11.86855571 38.71733298 -6.01226664 10.60490036 6.599899769 -5.257659912
lowerback  10.43519974 4.956699848 -3.11845994
upperback  1.931499958 5.916769981 -7.972599983
thorax  -3.263099909 2.962239981 -7.429900169
lowerneck  -0.3673720062 -2.674050093 -13.97000027
upperneck  6.110690117 -4.276329994 17.69630051
head  2.509350061 -2.026560068 7.704679966
lclavicle  0 -9.442270133e-015 7.951389973e-016
lhumerus  8.757200241 -27.86969948 73.59819794
lradius  2.549563876e-031 -2.443065304e-031 136.2220001
lwrist  -1.412450015e-030 -1.765562519e-031 5.260399818
lhand  -1.496451383e-031 -27.76390076 20.11240005
lfingers  90 7.125020027 -90
lthumb  89.89689403 5.08795885 91.16245106
rclavicle  0 -9.442270133e-015 7.951389973e-016
rhumerus  9.615130424 -5.142380238 -17.47089958
rradius  -1.047478326e-031 3.372185225e-031 107.2559967
rwrist  7.062250077e-031 -0 -8.818120003
rhand  -7.920061211e-032 -33.2840004 9.303460121
rfingers  -90 -7.125020027 -90
rthumb  -92.93752616 -24.25625642 -97.11982154
rfemur  2.634000063 6.514860153 30.77400017
rtibia  -0 0 40.41809845
rfoot  -0 -10.55749989 -13.93700027
rtoes  5.373923086 19.29304026 -105.8922705
lfemur  -56.71060181 -10.13490009 2.797070026
ltibia  -0 0 36.4632988
lfoot  -0 20.31389999 -8.094059944
ltoes  -4.250644065 -19.5611806 -102.515957
187
root  11.78419984 38.79266574 -5.920888871 11.10039997 7.865369797 -4.642479897
lowerback  10.44190025 5.404660225 -2.966540098
upperback  2.096940041 6.545619965 -8.0729599
thorax  -2.997509956 3.285200119 -7.687449932
lowerneck  -0.4002799988 -3.108170033 -14.0067997
upperneck  6.610640049 -4.87830019 17.10149956
head  2.748280048 -2.330470085 7.491839886
lclavicle  0 -9.442270133e-015 7.951389973e-016
lhumerus  9.465180397 -27.26860046 72.9803009
lradius  2.545467201e-031 -2.447333399e-031 136.1260071
lwrist  0 -1.765562519e-031 6.00617981
lhand  -1.496451383e-031 -27.76390076 20.11240005
lfingers  90 7.125020027 -90
lthumb  89.89689403 5.08795885 91.16245106
rclavicle  0 -9.442270133e-015 7.951389973e-016
rhumerus  15.84609985 -6.770830154 -15.39789963
rradius  -2.902871504e-032 3.51917283e-031 94.71549988
rwrist  7.062250077e-031 -0 -5.486680031
rhand  -7.920061211e-032 -33.2840004 9.303460121
rfingers  -90 -7.125020027 -90
rthumb  -92.93752616 -24.25625642 -97.11982154
rfemur  2.336800098 6.839409828 30.17880058
rtibia  -0 0 39.5306015
rfoot  -0 -12.13169956 -16.72299957
rtoes  5.373923086 19.29304026 -105.8922705
lfemur  -56.82120132 -10.8508997 2.323090076
ltibia  -0 0 35.94580078
lfoot  -0 19.4531002 -7.379869938
ltoes  -4.250644065 -19.5611806 -102.515957
188
root  11.68408882 38.81933257 -5.810911073 11.34309959 8.979040146 -4.549610138
lowerback  10.67790031 5.911300182 -2.555180073
upperback  2.129390001 7.256169796 -7.996479988
thorax  -2.97420001 3.641520023 -7.944419861
lowerneck  -0.223465994 -3.525140047 -13.81029987
upperneck  7.031599998 -5.495850086 16.87369919
head  2.930190086 -2.637340069 7.360070229
lclavicle  0 -9.442270133e-015 7.951389973e-016
lhumerus  9.79131031 -26.74480057 72.32430267
lradius  2.549094727e-031 -2.443554811e-031 136.2109985
lwrist  -7.062250077e-031 -0 6.918000221
lhand  -1.496451383e-031 -27.76390076 20.11240005
lfingers  90 7.125020027 -90
lthumb  89.89689403 5.08795885 91.16245106
rclavicle  0 -9.442270133e-015 7.951389973e-016
rhumerus  21.50079918 -7.365129948 -13.44509983
rradius  5.2985586e-032 3.491145486e-031 81.37000275
rwrist  7.062250077e-031 -1.765562519e-031 -5.180679798
rhand  -7.920061211e-032 -33.2840004 9.303460121
rfingers  -90 -7.125020027 -90
rthumb  -92.93752616 -24.25625642 -97.11982154
rfemur  2.342410088 7.186439991 30.13509941
rtibia  -0 0 38.39279938
rfoot  -0 -13.9552002 -19.18549919
rtoes  5.373923086 19.29304026 -105.8922705
lfemur  -56.70669937 -11.41989994 2.413300037
ltibia  -0 0 35.82149887
lfoot  9.290370019e-032 18.15609932 -7.108920097
ltoes  -4.250644065 -19.5611806 -102.515957
189
root  11.59199993 38.82977643 -5.679977597 11.5781002 10.06050014 -4.225689888
lowerback  10.83030033 6.415550232 -2.496819973
upperback  2.164279938 7.929160118 -7.957650185
thorax  -2.940259933 3.980849981 -8.03083992
lowerneck  0.1490000039 -3.928630114 -13.66919994
upperneck  7.089950085 -6.126930237 17.37050056
head  2.994560003 -2.946389914 7.477779865
lclavicle  0 -9.442270133e-015 7.951389973e-016
lhumerus  9.977169991 -26.5795002 71.55220032
lradius  2.546064793e-031 -2.446711692e-031 136.1399994
lwrist  -7.062250077e-031 -3.531125038e-031 7.000170231
lhand  -1.496451383e-031 -27.76390076 20.11240005
lfingers  90 7.125020027 -90
lthumb  89.89689403 5.08795885 91.16245106
rclavicle  0 -9.442270133e-015 7.951389973e-016
rhumerus  26.68759918 -7.952420235 -12.02110004
rradius  1.350995484e-031 3.262461531e-031 67.50540161
rwrist  7.062250077e-031 -1.765562519e-031 -4.878399849
rhand  -7.920061211e-032 -33.2840004 9.303460121
rfingers  -90 -7.125020027 -90
rthumb  -92.93752616 -24.25625642 -97.11982154
rfemur  2.485640049 7.210350037 29.71100044
rtibia  -0 0 37.167099
rfoot  -0 -15.72889996 -20.33340073
rtoes  5.373923086 19.29304026 -105.8922705
lfemur  -56.5644989 -12.12170029 2.280920029
ltibia  -0 0 35.9394989
lfoot  4.607115379e-032 16.65200043 -6.473179817
ltoes  -4.250644065 -19.5611806 -102.515957
190
root  11.52013343 38.82199986 -5.548422355 11.70289993 11.51439953 -4.212890148
lowerback  10.96570015 6.826429844 -1.964300036
upperback  2.220020056 8.541279793 -7.863959789
thorax  -2.82001996 4.291719913 -8.306870461
lowerneck  0.6876119971 -4.36921978 -13.50469971
upperneck  6.801089764 -6.824160099 18.42980003
head  2.960330009 -3.288409948 7.777870178
lclavicle  0 -9.442270133e-015 7.951389973e-016
lhumerus  10.10109997 -27.17079926 70.82019806
lradius  2.522676811e-031 -2.470818841e-031 135.5950012
lwrist  -1.412450015e-030 -0 5.440499783
lhand  -1.496451383e-031 -27.76390076 20.11240005
lfingers  90 7.125020027 -90
lthumb  89.89689403 5.08795885 91.16245106
rclavicle  0 -9.442270133e-015 7.951389973e-016
rhumerus  31.32019997 -8.797789574 -11.33790016
rradius  2.122282446e-031 2.822190861e-031 53.05690002
rwrist  1.059337512e-030 -1.765562519e-031 -3.636749983
rhand  -7.920061211e-032 -33.2840004 9.303460121
rfingers  -90 -7.125020027 -90
rthumb  -92.93752616 -24.25625642 -97.11982154
rfemur  2.736089945 6.536900043 29.5571003
rtibia  -0 0 35.99959946
rfoot  -0 -17.1317997 -19.83309937
rtoes  5.373923086 19.29304026 -105.8922705
lfemur  -56.56610107 -12.80869961 2.3046
ltibia  -0 0 36.22370148
lfoot  4.566906623e-032 14.87279987 -5.928470135
ltoes  -4.250644065 -19.5611806 -102.515957
